#!OML:ASF H:\Terrain\Patient Classification 1\Terrain2\Thursday\justin.ASF
:FULLY-SPECIFIED
:DEGREES
2333
root 25.2719 17.5441 -0.29332 1174.21 -263.311 -256.251
lowerback 5.95782 1.91473 3.7813
upperback 2.69179 2.90978 3.52342
thorax -0.561023 1.51442 1.32291
lowerneck -12.2719 -0.63791 -7.28155
upperneck 41.2645 3.65997 0.401179
head 17.0284 1.20353 2.36839
rclavicle 1.31508e-014 1.78906e-015
rhumerus -35.4607 -24.4751 -71.0506
rradius 19.4944
rwrist -4.98483
rhand -23.9194 10.2234
rfingers 7.12502
rthumb 2.55522 -19.741
lclavicle 1.31508e-014 1.78906e-015
lhumerus -39.868 19.0325 78.051
lradius 21.0428
lwrist -9.87876
lhand -14.0386 23.3694
lfingers 7.12502
lthumb 12.0919 53
rfemur 7.06996 -3.00222 18.1529
rtibia 79.5009
rfoot -5.41265 20.3717
rtoes 7.51033
lfemur -10.8923 5.76623 -14.349
ltibia 32.4693
lfoot -6.9158 -9.61293
ltoes 5.20004
2334
root 25.3592 17.5446 -0.312071 1171.92 -262.794 -258.668
lowerback 6.0738 1.86292 4.48897
upperback 2.75911 2.89271 3.57909
thorax -0.523193 1.51519 0.985636
lowerneck -12.4564 -0.667735 -7.38796
upperneck 41.3338 3.65731 0.449756
head 17.1131 1.1862 2.41519
rclavicle -4.00489e-014 -1.72943e-014
rhumerus -35.2646 -24.7529 -71.0731
rradius 19.1247
rwrist -4.66772
rhand -24.0709 10.6335
rfingers 7.12502
rthumb 2.40886 -19.3327
lclavicle -4.00489e-014 -1.72943e-014
lhumerus -39.3435 18.7123 78.4488
lradius 21.8609
lwrist -8.93918
lhand -14.621 23.7676
lfingers 7.12502
lthumb 11.5302 53.4305
rfemur 5.68024 -2.88883 18.7924
rtibia 81.4842
rfoot -3.84848 19.7075
rtoes 2.16808
lfemur -10.8988 5.65718 -13.8207
ltibia 32.7543
lfoot -7.23412 -9.63765
ltoes 5.71252
2335
root 25.4351 17.5588 -0.322925 1168.67 -263.594 -262.021
lowerback 6.32245 1.91403 3.91751
upperback 2.82157 2.92635 3.18602
thorax -0.605068 1.52455 0.887921
lowerneck -12.5165 -0.714493 -7.38529
upperneck 41.3031 3.55659 0.532995
head 17.1125 1.15577 2.43522
rclavicle 2.89853e-014 -8.15017e-015
rhumerus -35.0092 -24.8788 -71.5124
rradius 18.9
rwrist -5.05594
rhand -24.7794 10.8597
rfingers 7.12502
rthumb 1.72463 -19.1131
lclavicle 2.89853e-014 -8.15017e-015
lhumerus -38.5923 17.5659 79.0661
lradius 22.7593
lwrist -7.43699
lhand -14.6982 24.1904
lfingers 7.12502
lthumb 11.4558 53.8574
rfemur 4.26556 -2.9957 17.8115
rtibia 83.5842
rfoot -2.68318 19.0204
rtoes 0.71456
lfemur -10.816 5.35825 -14.7092
ltibia 32.7805
lfoot -7.12379 -9.91268
ltoes 9.29001
2336
root 25.5006 17.5772 -0.325187 1164.29 -264.816 -266.508
lowerback 6.63903 1.99246 2.59586
upperback 2.87291 2.95102 2.8193
thorax -0.776017 1.52319 1.23286
lowerneck -12.5139 -0.745733 -7.44217
upperneck 41.2843 3.52958 0.549215
head 17.1022 1.14021 2.44786
rclavicle -1.54524e-014 -1.25234e-014
rhumerus -34.7258 -25.0745 -71.694
rradius 18.7907
rwrist -5.19197
rhand -24.5047 10.6954
rfingers 7.12502
rthumb 1.98989 -19.275
lclavicle -1.54524e-014 -1.25234e-014
lhumerus -37.9182 16.3979 79.8368
lradius 23.7112
lwrist -5.89935
lhand -14.5878 24.2292
lfingers 7.12502
lthumb 11.5623 53.8903
rfemur 2.75323 -3.19912 16.2611
rtibia 85.7466
rfoot -2.07354 18.2449
rtoes -0.932074
lfemur -10.5806 5.0737 -16.0702
ltibia 32.474
lfoot -6.89167 -10.202
ltoes 11.7767
2337
root 25.5636 17.5967 -0.327216 1159.41 -265.217 -271.402
lowerback 7.05813 1.94646 1.89801
upperback 2.88729 2.86106 2.76672
thorax -1.02483 1.47252 1.55857
lowerneck -12.509 -0.703044 -7.59675
upperneck 41.3932 3.65655 0.604244
head 17.1534 1.1775 2.52734
rclavicle -3.14755e-015 1.25234e-014
rhumerus -34.4928 -25.5644 -71.5675
rradius 18.5096
rwrist -4.12066
rhand -23.7618 10.8023
rfingers 7.12502
rthumb 2.70738 -19.1603
lclavicle -3.14755e-015 1.25234e-014
lhumerus -37.5024 15.4257 80.5272
lradius 24.648
lwrist -4.3835
lhand -14.7295 23.9474
lfingers 7.12502
lthumb 11.4256 53.6161
rfemur 1.34576 -3.44244 15.6862
rtibia 87.7768
rfoot -2.31677 17.0411
rtoes -3.83176
lfemur -10.1116 4.71233 -16.5839
ltibia 31.9184
lfoot -6.77987 -10.2791
ltoes 11.168
2338
root 25.6279 17.6237 -0.334576 1154.22 -265.504 -276.83
lowerback 7.18684 1.83747 1.511
upperback 2.87293 2.68897 2.61809
thorax -1.11909 1.38307 1.63035
lowerneck -12.5889 -0.589513 -7.56558
upperneck 41.539 3.88541 0.566766
head 17.2464 1.26889 2.55244
rclavicle 9.85149e-015 -1.43125e-014
rhumerus -34.0993 -25.4925 -71.9831
rradius 18.2397
rwrist -3.36597
rhand -23.3688 11.0316
rfingers 7.12502
rthumb 3.08695 -18.9258
lclavicle 9.85149e-015 -1.43125e-014
lhumerus -37.2002 14.5885 80.9794
lradius 25.6726
lwrist -2.99457
lhand -15.225 23.4873
lfingers 7.12502
lthumb 10.9477 53.1818
rfemur -0.203185 -3.60135 15.4042
rtibia 89.6487
rfoot -3.46346 15.6758
rtoes -2.56936
lfemur -9.81064 4.30882 -17.045
ltibia 31.2822
lfoot -6.6528 -10.2713
ltoes 9.82487
2339
root 25.6894 17.6587 -0.347216 1148.21 -265.965 -283.395
lowerback 6.96501 1.86672 1.06773
upperback 2.77747 2.67969 2.34399
thorax -1.10148 1.37278 1.60257
lowerneck -12.5321 -0.622323 -7.44971
upperneck 41.5925 3.87456 0.438956
head 17.2709 1.26861 2.47408
rclavicle 1.75746e-014 -2.48481e-015
rhumerus -33.8173 -24.8203 -72.6441
rradius 18.38
rwrist -3.46803
rhand -22.9845 10.8295
rfingers 7.12502
rthumb 3.45811 -19.1222
lclavicle 1.75746e-014 -2.48481e-015
lhumerus -36.9129 13.5488 81.4739
lradius 26.8454
lwrist -1.82748
lhand -15.6105 23.0797
lfingers 7.12502
lthumb 10.5759 52.7936
rfemur -2.13417 -3.75726 14.987
rtibia 91.3702
rfoot -5.55267 14.5926
rtoes -6.72095
lfemur -9.77817 4.03569 -17.7938
ltibia 30.4783
lfoot -6.44783 -10.2069
ltoes 7.91364
2340
root 25.7497 17.6989 -0.353247 1144.12 -265.792 -287.92
lowerback 6.8265 1.88257 1.07271
upperback 2.74268 2.69612 2.31531
thorax -1.05929 1.38036 1.5732
lowerneck -12.5143 -0.708481 -7.52727
upperneck 41.6608 3.7649 0.498632
head 17.3092 1.2214 2.49965
rclavicle 8.53687e-015 -1.2424e-014
rhumerus -33.5865 -24.1135 -73.1816
rradius 18.8297
rwrist -3.50948
rhand -22.8055 10.587
rfingers 7.12502
rthumb 3.6309 -19.3618
lclavicle 8.53687e-015 -1.2424e-014
lhumerus -36.5975 12.0587 82.217
lradius 28.1676
lwrist -0.29587
lhand -15.9275 22.8554
lfingers 7.12502
lthumb 10.27 52.5846
rfemur -3.91841 -4.25489 15.201
rtibia 92.815
rfoot -8.25279 13.7071
rtoes -9.23145
lfemur -9.54127 3.73992 -17.812
ltibia 29.4576
lfoot -6.07578 -10.1487
ltoes 6.87208
2341
root 25.8142 17.7545 -0.350395 1138.04 -265.682 -294.223
lowerback 6.84104 1.76296 0.720566
upperback 2.82981 2.5167 2.3705
thorax -0.991312 1.28991 1.84235
lowerneck -12.6565 -0.619231 -7.78175
upperneck 41.754 3.9625 0.642604
head 17.3805 1.27759 2.65178
rclavicle 1.41323e-015 -7.45443e-015
rhumerus -33.1725 -23.0081 -73.8424
rradius 19.3863
rwrist -3.69687
rhand -22.3051 10.6466
rfingers 7.12502
rthumb 4.11411 -19.2935
lclavicle 1.41323e-015 -7.45443e-015
lhumerus -36.3032 11.3127 82.7542
lradius 29.5118
lwrist 0.954598
lhand -16.2801 22.3277
lfingers 7.12502
lthumb 9.92992 52.0735
rfemur -5.30889 -5.57062 14.5338
rtibia 93.9979
rfoot -10.3075 14.0208
rtoes -10.6559
lfemur -8.91431 3.41848 -17.9675
ltibia 28.2175
lfoot -5.58087 -10.1165
ltoes 7.06431
2342
root 25.8741 17.7993 -0.351764 1129.13 -265.861 -303.213
lowerback 6.99206 1.63127 0.0579965
upperback 2.92788 2.30077 2.33758
thorax -0.992023 1.17878 2.19409
lowerneck -12.6325 -0.482631 -8.0616
upperneck 41.7214 4.25927 0.668726
head 17.3351 1.36132 2.76223
rclavicle -1.62569e-014 -1.78906e-014
rhumerus -32.7154 -21.1125 -74.776
rradius 20.0413
rwrist -4.52902
rhand -21.5986 10.7829
rfingers 7.12502
rthumb 4.79635 -19.1428
lclavicle -1.62569e-014 -1.78906e-014
lhumerus -36.0966 11.2423 83.0338
lradius 30.7844
lwrist 1.52582
lhand -16.353 21.5929
lfingers 7.12502
lthumb 9.8596 51.342
rfemur -6.53519 -6.34972 13.6509
rtibia 95.042
rfoot -11.4857 14.5528
rtoes -8.73351
lfemur -8.10123 3.02344 -18.6003
ltibia 26.9029
lfoot -5.06315 -9.93904
ltoes 8.44257
2343
root 25.9316 17.8434 -0.347464 1126.13 -265.444 -306.151
lowerback 7.35259 1.55323 0.190286
upperback 3.01228 2.2168 2.38803
thorax -1.09851 1.14026 2.16974
lowerneck -12.5321 -0.482167 -8.04199
upperneck 41.6267 4.29959 0.528314
head 17.2609 1.36748 2.69541
rclavicle 9.95787e-015 2.06736e-014
rhumerus -32.377 -19.6843 -75.6623
rradius 20.739
rwrist -4.9531
rhand -21.4298 10.9037
rfingers 7.12502
rthumb 4.95935 -19.0182
lclavicle 9.95787e-015 2.06736e-014
lhumerus -35.9706 10.4803 83.3756
lradius 32.2048
lwrist 2.45449
lhand -16.6432 21.0957
lfingers 7.12502
lthumb 9.57957 50.8579
rfemur -7.63919 -6.7568 13.9757
rtibia 95.8026
rfoot -12.2394 14.3295
rtoes -7.25941
lfemur -7.133 2.56891 -18.4184
ltibia 25.4903
lfoot -4.60894 -9.79084
ltoes 10.2345
2344
root 25.9863 17.8868 -0.330761 1127.96 -264.663 -304.322
lowerback 7.69585 1.5763 0.856263
upperback 3.05271 2.30758 2.42389
thorax -1.22595 1.19215 1.81596
lowerneck -12.4651 -0.594612 -7.85445
upperneck 41.5888 4.00228 0.658545
head 17.2324 1.29561 2.66767
rclavicle 1.24458e-014 1.68967e-015
rhumerus -32.2714 -19.3102 -76.3809
rradius 21.4889
rwrist -4.62169
rhand -21.6349 11.1373
rfingers 7.12502
rthumb 4.7613 -18.7892
lclavicle 1.24458e-014 1.68967e-015
lhumerus -35.8401 8.9929 83.6485
lradius 33.8029
lwrist 3.85787
lhand -17.4365 21.0328
lfingers 7.12502
lthumb 8.81416 50.8288
rfemur -8.8135 -7.15929 15.1938
rtibia 96.4056
rfoot -13.2386 13.2017
rtoes -7.13205
lfemur -6.29324 2.26364 -17.5839
ltibia 24.1396
lfoot -4.08188 -9.83215
ltoes 12.077
2345
root 26.0339 17.9348 -0.323663 1128.03 -264.271 -304.689
lowerback 7.55398 1.56392 1.07927
upperback 3.02585 2.30388 2.43281
thorax -1.16684 1.19127 1.70419
lowerneck -12.3925 -0.608703 -8.11642
upperneck 41.4619 3.86237 1.05844
head 17.1265 1.25406 2.86321
rclavicle -4.80189e-015 2.03754e-014
rhumerus -32.0942 -17.9133 -77.3208
rradius 22.5007
rwrist -5.25893
rhand -22.126 11.1011
rfingers 7.12502
rthumb 4.28706 -18.8355
lclavicle -4.80189e-015 2.03754e-014
lhumerus -35.7045 8.09573 83.8716
lradius 35.4462
lwrist 4.9718
lhand -18.0992 21.1761
lfingers 7.12502
lthumb 8.17455 50.9979
rfemur -10.4341 -7.72437 15.9194
rtibia 96.9606
rfoot -14.8548 11.7094
rtoes -9.55697
lfemur -5.96346 1.96096 -17.2427
ltibia 22.8385
lfoot -3.4487 -9.73462
ltoes 13.6925
2346
root 26.0839 17.9809 -0.33027 1126.01 -264.038 -307.284
lowerback 7.21662 1.43749 1.06694
upperback 3.01391 2.12515 2.45969
thorax -0.98982 1.10119 1.7631
lowerneck -12.461 -0.506683 -8.2175
upperneck 41.308 4.06429 0.977016
head 17.0474 1.30863 2.87137
rclavicle 1.03896e-014 3.97569e-015
rhumerus -31.8307 -15.9796 -78.2185
rradius 23.5926
rwrist -6.40892
rhand -22.2738 10.8295
rfingers 7.12502
rthumb 4.14437 -19.11
lclavicle 1.03896e-014 3.97569e-015
lhumerus -35.6383 7.84849 84.0799
lradius 37.1245
lwrist 5.80423
lhand -18.3092 21.0103
lfingers 7.12502
lthumb 7.97192 50.84
rfemur -12.2988 -8.09437 16.087
rtibia 97.4893
rfoot -15.5625 11.6535
rtoes -5.34184
lfemur -5.7314 1.46715 -17.3069
ltibia 21.4778
lfoot -2.90394 -9.44807
ltoes 13.6522
2347
root 26.141 18.0189 -0.340166 1120.45 -263.994 -313.065
lowerback 7.26576 1.38705 0.781417
upperback 3.04622 2.03441 2.29098
thorax -0.985291 1.05382 1.75586
lowerneck -12.5358 -0.469977 -7.96528
upperneck 41.3152 4.14735 0.769982
head 17.078 1.35296 2.7499
rclavicle 8.90804e-015 4.77083e-015
rhumerus -31.8384 -15.0603 -78.6885
rradius 24.6345
rwrist -6.9445
rhand -22.0235 11.0343
rfingers 7.12502
rthumb 4.38606 -18.9002
lclavicle 8.90804e-015 4.77083e-015
lhumerus -35.6702 7.04732 84.2757
lradius 38.771
lwrist 6.68673
lhand -18.3296 20.7492
lfingers 7.12502
lthumb 7.95222 50.5796
rfemur -13.6674 -8.84138 15.6584
rtibia 97.8397
rfoot -16.606 10.8592
rtoes -5.85276
lfemur -5.02873 0.86562 -17.856
ltibia 20.0626
lfoot -2.40189 -9.07854
ltoes 13.5791
